# AST/ASF file generated using VICON BodyLanguage
# -----------------------------------------------
:version 1.10
:name VICON
:units
  mass 1.0
  length 0.45
  angle deg
:documentation
   .ast/.asf automatically generated from VICON data using
   VICON BodyBuilder and BodyLanguage model FoxedUp or BRILLIANT.MOD
:root
   order TX TY TZ RX RY RZ
   axis XYZ
   position 0 0 0  
   orientation 0 0 0 
:bonedata
  begin
     id 1 
     name lhipjoint
     direction 0.577973 -0.728611 0.367523 
     length 2.48544 
     axis 0 0 0  XYZ
  end
  begin
     id 2 
     name lfemur
     direction 0.34202 -0.939693 0  
     length 7.1921  
     axis 0 0 20  XYZ
    dof rx ry rz
    limits (-160.0 20.0)
           (-70.0 70.0)
           (-60.0 70.0)
  end
  begin
     id 3 
     name ltibia
     direction 0.34202 -0.939693 0   
     length 7.71059   
     axis 0 0 20   XYZ
    dof rx
    limits (-10.0 170.0)
  end
  begin
     id 4 
     name lfoot
     direction 0.089538 -0.246004 0.965124   
     length 2.19909   
     axis -90 7.62852e-016 20   XYZ
    dof rx rz
    limits (-45.0 90.0)
           (-70.0 20.0)
  end
  begin
     id 5 
     name ltoes
     direction 1.53544e-011 -4.21829e-011 1   
     length 1.10116   
     axis -90 7.62852e-016 20   XYZ
    dof rx
    limits (-90.0 20.0)
  end
  begin
     id 6 
     name rhipjoint
     direction -0.554414 -0.743062 0.374812   
     length 2.4371  
     axis 0 0 0  XYZ 
  end
  begin
     id 7 
     name rfemur
     direction -0.34202 -0.939693 0   
     length 7.47254   
     axis 0 0 -20   XYZ
    dof rx ry rz
    limits (-160.0 20.0)
           (-70.0 70.0)
           (-70.0 60.0)
  end
  begin
     id 8 
     name rtibia
     direction -0.34202 -0.939693 0   
     length 7.65855   
     axis 0 0 -20   XYZ
    dof rx
    limits (-10.0 170.0)
 end
 begin
     id 9 
     name rfoot
     direction -0.133779 -0.367555 0.92033   
     length 2.43006  
     axis -90 -7.62852e-016 -20   XYZ
    dof rx rz
    limits (-45.0 90.0)
           (-20.0 70.0)
  end
  begin
     id 10 
     name rtoes
     direction -1.53563e-011 -4.21889e-011 1   
     length 1.19625   
     axis -90 -7.62852e-016 -20   XYZ
    dof rx
    limits (-90.0 20.0)
  end
  begin
     id 11 
     name lowerback
     direction 0.0249066 0.998043 -0.0573585   
     length 2.08485   
     axis 0 0 0   XYZ
    dof rx ry rz
    limits (-20.0 45.0)
           (-30.0 30.0)
           (-30.0 30.0)
  end
  begin
     id 12 
     name upperback
     direction 0.0237884 0.999673 0.00943178   
     length 2.08515   
     axis 0 0 0   XYZ
    dof rx ry rz
    limits (-20.0 45.0)
           (-30.0 30.0)
           (-30.0 30.0)
  end
  begin
     id 13 
     name thorax
     direction 0.0106671 0.999301 0.0358174   
     length 2.09037   
     axis 0 0 0   XYZ
    dof rx ry rz
    limits (-20.0 45.0)
           (-30.0 30.0)
           (-30.0 30.0)
  end
  begin
     id 14 
     name lowerneck
     direction -0.0580016 0.987052 0.149546   
     length 1.84454   
     axis 0 0 0   XYZ
    dof rx ry rz
    limits (-20.0 45.0)
           (-30.0 30.0)
           (-30.0 30.0)
  end
  begin
     id 15 
     name upperneck
     direction 0.079456 0.981963 -0.171567   
     length 1.88141   
     axis 0 0 0   XYZ
    dof rx ry rz
    limits (-20.0 45.0)
           (-30.0 30.0)
           (-30.0 30.0)
  end
  begin
     id 16
     name head
     direction 0.0262167 0.9967 -0.0768276  
     length 1.89541  
     axis 0 0 0   XYZ
    dof rx ry rz
    limits (-20.0 45.0)
           (-30.0 30.0)
           (-30.0 30.0)
  end
  begin
     id 17 
     name lclavicle
     direction 0.946135 0.322134 -0.0325326  
     length 3.949  
     axis 0 0 0   XYZ
    dof ry rz
    limits (-20.0 10.0)
           (0.0 20.0)
  end
  begin
     id 18 
     name lhumerus
     direction 1 -4.48964e-011 1.94005e-028   
     length 5.10995   
     axis 180 -30 -90   XYZ
    dof rx ry rz
    limits (-60.0 90.0)
           (-90.0 90.0)
           (-90.0 90.0)
  end
  begin
     id 19
     name lradius
     direction 1 -4.48976e-011 2.87852e-027   
     length 3.21207   
     axis 180 -30 -90   XYZ
    dof rx
    limits (-10.0 170.0)
  end
  begin
     id 20
     name lwrist
     direction 1 -4.48963e-011 1.9975e-027   
     length 1.60604   
     axis 2.96054e-016 90 90   XYZ
    dof ry
    limits (-180.0 0.0)
 end
  begin
     id 21 
     name lhand
     direction 1 -4.48919e-011 4.00227e-027   
     length 0.63349   
     axis -2.5488e-015 90 90   XYZ
    dof rx rz
    limits (-90.0 90.0)
           (-45.0 45.0)
  end
  begin
     id 22 
     name lfingers
     direction 1 -4.49037e-011 7.9652e-027   
     length 0.510736   
     axis -5.0975e-015 90 90   XYZ
    dof rx
    limits (0.0 90.0)
  end
  begin
     id 23
     name lthumb
     direction 0.707107 -6.34922e-011 0.707107   
     length 0.733318   
     axis -90 45 -4.48553e-014   XYZ
    dof rx rz
    limits (-45.0 45.0)
           (-45.0 45.0)
  end
  begin
     id 24 
     name rclavicle
     direction -0.940085 0.328911 -0.0897654   
     length 3.93848  
     axis 0 0 0   XYZ 
    dof ry rz
    limits (-10.0 20.0)
           (-20.0 0.0)
  end
  begin
     id 25 
     name rhumerus
     direction -1 -4.48958e-011 3.02044e-027  
     length 5.25109   
     axis 180 30 90   XYZ
    dof rx ry rz
    limits (-90.0 60.0)
           (-90.0 90.0)
           (-90.0 90.0)
  end
  begin
     id 26 
     name rradius
     direction -1 -4.4897e-011 9.78352e-028   
     length 3.28364   
     axis 180 30 90   XYZ
    dof rx
    limits (-10.0 170.0)
  end
  begin
     id 27 
     name rwrist
     direction -1 -4.48943e-011 1.99918e-027   
     length 1.64182   
     axis 2.96054e-016 -90 -90   XYZ
    dof ry
    limits (-180.0 0.0)
  end
  begin
     id 28
     name rhand
     direction -1 -4.49024e-011 3.98478e-027   
     length 0.599745   
     axis -2.5488e-015 -90 -90   XYZ
    dof rx rz
    limits (-90.0 90.0)
           (-45.0 45.0)
  end
  begin
     id 29
     name rfingers
     direction -1 -4.48914e-011 8.00621e-027   
     length 0.48353   
     axis -5.0975e-015 -90 -90   XYZ
    dof rx
    limits (0.0 90.0)
  end
  begin
     id 30
     name rthumb
     direction -0.707107 -6.34992e-011 0.707107   
     length 0.694255   
     axis -90 -45 4.48553e-014   XYZ
    dof rx rz
    limits (-45.0 45.0)
           (-45.0 45.0)
  end
:hierarchy
  begin
    root lhipjoint rhipjoint lowerback
    lhipjoint lfemur
    lfemur ltibia
    ltibia lfoot
    lfoot ltoes
    rhipjoint rfemur
    rfemur rtibia
    rtibia rfoot
    rfoot rtoes
    lowerback upperback
    upperback thorax
    thorax lowerneck lclavicle rclavicle
    lowerneck upperneck
    upperneck head
    lclavicle lhumerus
    lhumerus lradius
    lradius lwrist
    lwrist lhand lthumb
    lhand lfingers
    rclavicle rhumerus
    rhumerus rradius
    rradius rwrist
    rwrist rhand rthumb
    rhand rfingers
  end

#!OML:ASF E:\CV Data\Top Level 1\Subject 1\Session 1\player.ASF
:FULLY-SPECIFIED
:DEGREES
344
root 4.54729 17.8649 -13.9919 3.21421 -3.56119 -4.78402
lowerback 6.23013 0.524756 3.39598
upperback -0.999892 1.09077 2.82979
thorax -4.52908 0.48962 0.917579
lowerneck -18.0706 -6.74828 -12.122
upperneck 23.8862 -8.23797 8.44909
head 11.6825 -3.81934 3.8552
rclavicle 6.70898e-015 -1.19271e-014
rhumerus -36.28 -0.786739 -86.8161
rradius 31.4024
rwrist -15.9207
rhand -21.8962 1.5293
rfingers 7.12502
rthumb 4.50905 -28.4027
lclavicle 6.70898e-015 -1.19271e-014
lhumerus -42.2786 4.64042 86.5426
lradius 36.6927
lwrist 1.0958
lhand -13.2937 11.0187
lfingers 7.12502
lthumb 12.8101 40.6057
rfemur -11.2589 5.64923 21.9017
rtibia 22.1224
rfoot -12.5585 -7.32735
rtoes 2.52221
lfemur -7.5491 -1.78086 -12.2289
ltibia 17.9104
lfoot -8.15429 3.25773
ltoes -0.763708
345
root 4.55114 17.865 -13.9815 3.24846 -3.60462 -4.79199
lowerback 6.23636 0.535548 3.39063
upperback -0.978756 1.10379 2.82257
thorax -4.51038 0.496423 0.911712
lowerneck -18.0917 -6.7456 -12.1147
upperneck 23.9714 -8.23423 8.42988
head 11.7175 -3.81914 3.84864
rclavicle -1.21756e-014 -2.66371e-014
rhumerus -36.292 -0.851923 -86.7705
rradius 31.3511
rwrist -15.8935
rhand -21.9155 1.51169
rfingers 7.12502
rthumb 4.4904 -28.4207
lclavicle -1.21756e-014 -2.66371e-014
lhumerus -42.3116 4.62039 86.5499
lradius 36.7165
lwrist 1.1211
lhand -13.3542 11.0147
lfingers 7.12502
lthumb 12.7517 40.6053
rfemur -11.2598 5.66645 21.8946
rtibia 22.1129
rfoot -12.5563 -7.29832
rtoes 2.58076
lfemur -7.53706 -1.79629 -12.2413
ltibia 17.9132
lfoot -8.17124 3.3223
ltoes -0.764545
346
root 4.55461 17.8654 -13.9721 3.30262 -3.64577 -4.80536
lowerback 6.23549 0.546119 3.38346
upperback -0.967067 1.1166 2.81969
thorax -4.49764 0.503115 0.91145
lowerneck -18.1007 -6.74061 -12.1088
upperneck 24.0556 -8.22767 8.40887
head 11.7495 -3.81834 3.84231
rclavicle -4.87022e-015 -2.78299e-015
rhumerus -36.3065 -0.906944 -86.7278
rradius 31.3003
rwrist -15.8686
rhand -21.9426 1.48625
rfingers 7.12502
rthumb 4.46418 -28.4467
lclavicle -4.87022e-015 -2.78299e-015
lhumerus -42.3417 4.60113 86.5581
lradius 36.7335
lwrist 1.13879
lhand -13.4147 11.0125
lfingers 7.12502
lthumb 12.6934 40.6067
rfemur -11.2842 5.68675 21.8927
rtibia 22.1014
rfoot -12.552 -7.2742
rtoes 2.63944
lfemur -7.55415 -1.79999 -12.2446
ltibia 17.9228
lfoot -8.18996 3.37551
ltoes -0.758359
347
root 4.55789 17.8657 -13.9631 3.36231 -3.70306 -4.82207
lowerback 6.22201 0.560888 3.37163
upperback -0.948297 1.13386 2.82205
thorax -4.47056 0.512391 0.91892
lowerneck -18.1052 -6.73424 -12.1008
upperneck 24.132 -8.21703 8.37868
head 11.7766 -3.81671 3.83276
rclavicle 1.97045e-014 -1.39149e-014
rhumerus -36.3047 -0.94811 -86.6876
rradius 31.2471
rwrist -15.8442
rhand -21.9715 1.45221
rfingers 7.12502
rthumb 4.43633 -28.4813
lclavicle 1.97045e-014 -1.39149e-014
lhumerus -42.3546 4.58781 86.5685
lradius 36.7446
lwrist 1.15213
lhand -13.4655 11.0083
lfingers 7.12502
lthumb 12.6444 40.6056
rfemur -11.317 5.71755 21.8933
rtibia 22.089
rfoot -12.5478 -7.24488
rtoes 2.69198
lfemur -7.57768 -1.79174 -12.2441
ltibia 17.939
lfoot -8.21376 3.4355
ltoes -0.755183
348
root 4.56115 17.866 -13.9545 3.4282 -3.78067 -4.84184
lowerback 6.20492 0.581498 3.36008
upperback -0.927215 1.1587 2.82641
thorax -4.43901 0.525502 0.927601
lowerneck -18.1048 -6.72544 -12.0958
upperneck 24.1931 -8.20268 8.35283
head 11.7968 -3.81323 3.82581
rclavicle 4.52235e-015 1.51076e-014
rhumerus -36.2931 -0.978887 -86.6523
rradius 31.1922
rwrist -15.8179
rhand -21.9963 1.4192
rfingers 7.12502
rthumb 4.41238 -28.5148
lclavicle 4.52235e-015 1.51076e-014
lhumerus -42.3561 4.5759 86.5785
lradius 36.7511
lwrist 1.16255
lhand -13.4991 11.0047
lfingers 7.12502
lthumb 12.6121 40.604
rfemur -11.3602 5.75748 21.8948
rtibia 22.0779
rfoot -12.5429 -7.20487
rtoes 2.73052
lfemur -7.60673 -1.7718 -12.2414
ltibia 17.961
lfoot -8.24066 3.50664
ltoes -0.75291
349
root 4.56441 17.8662 -13.9456 3.48609 -3.86789 -4.86233
lowerback 6.19177 0.603491 3.34933
upperback -0.900945 1.18547 2.83179
thorax -4.4043 0.539618 0.936698
lowerneck -18.1012 -6.71374 -12.0937
upperneck 24.2514 -8.18402 8.3291
head 11.815 -3.8079 3.82089
rclavicle -1.59028e-014 1.78906e-014
rhumerus -36.2781 -0.997468 -86.623
rradius 31.1399
rwrist -15.7912
rhand -22.0154 1.387
rfingers 7.12502
rthumb 4.39388 -28.5474
lclavicle -1.59028e-014 1.78906e-014
lhumerus -42.3528 4.56199 86.5887
lradius 36.7583
lwrist 1.1779
lhand -13.5201 11.0025
lfingers 7.12502
lthumb 12.5918 40.603
rfemur -11.3951 5.8027 21.8969
rtibia 22.0689
rfoot -12.5424 -7.16191
rtoes 2.75901
lfemur -7.62423 -1.74788 -12.2391
ltibia 17.9855
lfoot -8.27285 3.58497
ltoes -0.748278
350
root 4.5678 17.8662 -13.9365 3.54263 -3.96702 -4.88084
lowerback 6.18226 0.630017 3.3389
upperback -0.870113 1.21821 2.83512
thorax -4.36682 0.556704 0.942891
lowerneck -18.1114 -6.70375 -12.088
upperneck 24.315 -8.16649 8.30179
head 11.8378 -3.80285 3.81365
rclavicle 1.49089e-014 3.37934e-014
rhumerus -36.2543 -1.01452 -86.598
rradius 31.0897
rwrist -15.7602
rhand -22.0261 1.36488
rfingers 7.12502
rthumb 4.38359 -28.5698
lclavicle 1.49089e-014 3.37934e-014
lhumerus -42.3411 4.53859 86.6006
lradius 36.7695
lwrist 1.19606
lhand -13.5282 11.0079
lfingers 7.12502
lthumb 12.584 40.6089
rfemur -11.4318 5.84924 21.8952
rtibia 22.0627
rfoot -12.5428 -7.10852
rtoes 2.77965
lfemur -7.63814 -1.7127 -12.2407
ltibia 18.01
lfoot -8.30495 3.6648
ltoes -0.741447
351
root 4.57119 17.8661 -13.9271 3.59463 -4.04948 -4.8942
lowerback 6.17943 0.65114 3.32736
upperback -0.838547 1.24389 2.83586
thorax -4.33239 0.570254 0.947664
lowerneck -18.1278 -6.69315 -12.0778
upperneck 24.3846 -8.14839 8.27204
head 11.8638 -3.7973 3.80484
rclavicle 4.64659e-015 3.26007e-014
rhumerus -36.2299 -1.02879 -86.5786
rradius 31.0454
rwrist -15.7271
rhand -22.0316 1.3417
rfingers 7.12502
rthumb 4.37827 -28.593
lclavicle 4.64659e-015 3.26007e-014
lhumerus -42.3302 4.50786 86.6129
lradius 36.7869
lwrist 1.21886
lhand -13.5359 11.0108
lfingers 7.12502
lthumb 12.5766 40.6123
rfemur -11.4628 5.88377 21.889
rtibia 22.0593
rfoot -12.5464 -7.05982
rtoes 2.79468
lfemur -7.64956 -1.68367 -12.2469
ltibia 18.0316
lfoot -8.33624 3.73319
ltoes -0.730309
352
root 4.57433 17.8661 -13.9178 3.64784 -4.10588 -4.90329
lowerback 6.18627 0.663871 3.31349
upperback -0.811483 1.25887 2.83454
thorax -4.30819 0.57839 0.952553
lowerneck -18.1481 -6.68361 -12.0627
upperneck 24.4602 -8.13251 8.23978
head 11.8928 -3.79254 3.79392
rclavicle 2.70844e-015 -1.39149e-014
rhumerus -36.2079 -1.04034 -86.5657
rradius 31.0091
rwrist -15.6942
rhand -22.0275 1.32971
rfingers 7.12502
rthumb 4.38226 -28.6049
lclavicle 2.70844e-015 -1.39149e-014
lhumerus -42.3257 4.46447 86.6267
lradius 36.8125
lwrist 1.24563
lhand -13.5541 11.0067
lfingers 7.12502
lthumb 12.559 40.6092
rfemur -11.4961 5.89943 21.8804
rtibia 22.0601
rfoot -12.5525 -7.0182
rtoes 2.80737
lfemur -7.66928 -1.66526 -12.2546
ltibia 18.0511
lfoot -8.36394 3.78549
ltoes -0.714874
353
root 4.57719 17.8662 -13.9087 3.70149 -4.12218 -4.90672
lowerback 6.20029 0.6642 3.29736
upperback -0.788529 1.25763 2.83085
thorax -4.29243 0.578401 0.957743
lowerneck -18.17 -6.67439 -12.0428
upperneck 24.5391 -8.11844 8.20681
head 11.9233 -3.78821 3.78163
rclavicle -8.44835e-016 1.78906e-014
rhumerus -36.188 -1.04955 -86.5592
rradius 30.981
rwrist -15.6664
rhand -22.0164 1.33106
rfingers 7.12502
rthumb 4.39291 -28.6034
lclavicle -8.44835e-016 1.78906e-014
lhumerus -42.3272 4.40966 86.6424
lradius 36.8434
lwrist 1.27182
lhand -13.5883 10.9848
lfingers 7.12502
lthumb 12.5261 40.5894
rfemur -11.5283 5.89065 21.8691
rtibia 22.0645
rfoot -12.5624 -6.99208
rtoes 2.82472
lfemur -7.69818 -1.67081 -12.2644
ltibia 18.0679
lfoot -8.38861 3.82093
ltoes -0.706496
354
root 4.57916 17.8667 -13.9011 3.77539 -4.08883 -4.90646
lowerback 6.22167 0.648742 3.27395
upperback -0.781759 1.23595 2.82719
thorax -4.29798 0.568144 0.968938
lowerneck -18.1842 -6.66424 -12.027
upperneck 24.6191 -8.10517 8.18208
head 11.9536 -3.78385 3.77322
rclavicle -1.64494e-014 2.0276e-014
rhumerus -36.1734 -1.0558 -86.56
rradius 30.9594
rwrist -15.6451
rhand -22.0019 1.3413
rfingers 7.12502
rthumb 4.40694 -28.5928
lclavicle -1.64494e-014 2.0276e-014
lhumerus -42.3407 4.34653 86.6588
lradius 36.8793
lwrist 1.29205
lhand -13.6426 10.9408
lfingers 7.12502
lthumb 12.4737 40.5485
rfemur -11.5841 5.85513 21.8578
rtibia 22.0714
rfoot -12.5706 -6.98909
rtoes 2.84253
lfemur -7.76652 -1.68572 -12.2691
ltibia 18.0825
lfoot -8.40809 3.81717
ltoes -0.700278
355
root 4.58051 17.8673 -13.8943 3.85514 -4.01905 -4.90474
lowerback 6.24486 0.621592 3.24725
upperback -0.775722 1.19857 2.82399
thorax -4.30545 0.550177 0.98398
lowerneck -18.2018 -6.65421 -12.0094
upperneck 24.6953 -8.09301 8.16119
head 11.9833 -3.77925 3.76565
rclavicle -9.26834e-015 -1.55052e-014
rhumerus -36.1529 -1.05657 -86.5678
rradius 30.9471
rwrist -15.6348
rhand -21.9836 1.36636
rfingers 7.12502
rthumb 4.4246 -28.5674
lclavicle -9.26834e-015 -1.55052e-014
lhumerus -42.3508 4.274 86.6783
lradius 36.9186
lwrist 1.31037
lhand -13.712 10.8772
lfingers 7.12502
lthumb 12.4068 40.489
rfemur -11.645 5.80208 21.8487
rtibia 22.0789
rfoot -12.5817 -7.00546
rtoes 2.86245
lfemur -7.85278 -1.71185 -12.2693
ltibia 18.0965
lfoot -8.42691 3.78972
ltoes -0.710317
356
root 4.58148 17.8681 -13.888 3.94217 -3.91907 -4.90377
lowerback 6.27144 0.583914 3.2234
upperback -0.774952 1.14781 2.8212
thorax -4.32032 0.525412 0.999159
lowerneck -18.214 -6.64448 -11.9963
upperneck 24.7671 -8.08201 8.14633
head 12.0109 -3.77497 3.76096
rclavicle 8.69683e-016 -1.19271e-014
rhumerus -36.1345 -1.05073 -86.5823
rradius 30.942
rwrist -15.634
rhand -21.9585 1.40784
rfingers 7.12502
rthumb 4.44881 -28.5254
lclavicle 8.69683e-016 -1.19271e-014
lhumerus -42.3642 4.19534 86.6991
lradius 36.9622
lwrist 1.32545
lhand -13.7809 10.8228
lfingers 7.12502
lthumb 12.3403 40.4386
rfemur -11.7111 5.7318 21.8431
rtibia 22.0857
rfoot -12.5965 -7.03593
rtoes 2.87805
lfemur -7.95641 -1.7516 -12.2645
ltibia 18.1132
lfoot -8.44747 3.74791
ltoes -0.730649
357
root 4.5822 17.8689 -13.8817 4.02727 -3.80161 -4.90721
lowerback 6.30346 0.539363 3.20618
upperback -0.773664 1.08872 2.82005
thorax -4.33766 0.496361 1.01315
lowerneck -18.2256 -6.63372 -11.9864
upperneck 24.8366 -8.06991 8.13648
head 12.0379 -3.7699 3.75889
rclavicle 2.75814e-015 -4.77083e-015
rhumerus -36.1166 -1.03428 -86.6039
rradius 30.9449
rwrist -15.646
rhand -21.9326 1.45166
rfingers 7.12502
rthumb 4.47388 -28.4811
lclavicle 2.75814e-015 -4.77083e-015
lhumerus -42.3738 4.11106 86.7213
lradius 37.0078
lwrist 1.34454
lhand -13.8432 10.7781
lfingers 7.12502
lthumb 12.2803 40.3975
rfemur -11.7701 5.65582 21.8448
rtibia 22.0887
rfoot -12.6148 -7.07895
rtoes 2.89362
lfemur -8.06349 -1.78593 -12.252
ltibia 18.1338
lfoot -8.47703 3.68538
ltoes -0.757523
358
root 4.5832 17.8697 -13.8748 4.1144 -3.70929 -4.91725
lowerback 6.33464 0.502216 3.1968
upperback -0.77182 1.04011 2.82098
thorax -4.35378 0.472356 1.02393
lowerneck -18.2303 -6.62198 -11.9808
upperneck 24.9012 -8.05593 8.1279
head 12.0616 -3.7644 3.75838
rclavicle -3.42904e-015 -1.07344e-014
rhumerus -36.1048 -1.0071 -86.6281
rradius 30.9582
rwrist -15.6676
rhand -21.906 1.49988
rfingers 7.12502
rthumb 4.49955 -28.4323
lclavicle -3.42904e-015 -1.07344e-014
lhumerus -42.3817 4.02329 86.7472
lradius 37.0567
lwrist 1.3704
lhand -13.8898 10.7675
lfingers 7.12502
lthumb 12.2353 40.3896
rfemur -11.8294 5.59143 21.8508
rtibia 22.0865
rfoot -12.6338 -7.10923
rtoes 2.90092
lfemur -8.16806 -1.80559 -12.2354
ltibia 18.1602
lfoot -8.51089 3.63509
ltoes -0.777023
